<?xml version="1.0" standalone="no"?>
<!DOCTYPE svg PUBLIC "-//W3C//DTD SVG 20010904//EN"
 "http://www.w3.org/TR/2001/REC-SVG-20010904/DTD/svg10.dtd">
<svg version="1.0" xmlns="http://www.w3.org/2000/svg"
 width="512.000000pt" height="512.000000pt" viewBox="0 0 512.000000 512.000000"
 preserveAspectRatio="xMidYMid meet">

<g transform="translate(0.000000,512.000000) scale(0.100000,-0.100000)"
fill="#000000" stroke="none">
<path d="M1340 5114 c-223 -26 -374 -68 -538 -152 -272 -139 -515 -392 -643
-667 -88 -192 -132 -362 -151 -587 -49 -596 207 -1333 678 -1948 110 -144 132
-166 61 -60 -351 518 -575 1123 -628 1694 -14 146 -6 407 16 529 40 224 121
411 254 588 198 263 457 428 785 500 116 26 375 36 501 20 445 -58 845 -244
1138 -531 l121 -118 95 19 c397 80 737 62 1100 -57 120 -40 328 -147 421 -217
246 -186 416 -452 455 -714 38 -249 2 -620 -84 -878 -11 -33 -19 -61 -17 -62
6 -7 116 217 141 287 51 143 68 250 68 425 1 128 -4 180 -21 258 -98 445 -420
786 -909 963 -230 83 -443 118 -718 118 -173 0 -220 -4 -349 -27 l-148 -27
-92 87 c-290 276 -671 462 -1101 538 -88 15 -365 27 -435 19z"/>
<path d="M4320 2450 c-146 -25 -253 -98 -497 -332 -325 -313 -471 -415 -813
-568 -313 -141 -581 -225 -796 -251 -156 -19 -280 8 -342 74 l-23 24 32 27
c58 49 115 72 329 132 591 166 900 361 966 609 8 28 14 68 14 90 0 41 -23 151
-34 162 -9 9 -70 -35 -171 -122 -238 -205 -417 -292 -715 -350 -413 -79 -506
-100 -615 -136 -260 -87 -506 -250 -652 -433 -82 -103 -156 -253 -190 -387
-25 -95 -27 -120 -27 -294 0 -137 5 -216 17 -281 19 -99 77 -320 99 -374 l14
-33 63 128 c53 109 73 138 134 199 155 155 449 312 872 468 44 16 287 99 540
185 253 85 541 186 640 225 325 127 615 278 805 419 279 206 510 557 510 776
l0 53 -57 -1 c-32 -1 -78 -5 -103 -9z"/>
</g>
</svg>
